<svg width="182" height="222" viewBox="0 0 182 222" fill="none" xmlns="http://www.w3.org/2000/svg">
<g clip-path="url(#clip0_128_2)">
<path d="M99.6586 58.2271C101.179 56.8427 102.889 55.7731 104.409 54.3887L106.066 56.4268C104.615 57.5709 102.905 58.6405 101.385 60.0249L99.6586 58.2271ZM95.3574 62.455L97.3431 64.3273C96.082 65.7862 94.5619 67.1707 93.3009 68.6296L91.2461 66.9976C92.5763 65.2983 93.8373 63.8394 95.3574 62.455ZM109.798 51.2544C111.508 50.1849 113.477 49.1898 115.118 48.3606L116.447 50.5646C114.806 51.3938 112.837 52.3889 111.196 53.2181L109.798 51.2544ZM87.2039 71.3L89.2587 72.9319C87.9977 74.3909 86.9957 75.9243 85.6655 77.6236L83.2826 76.1575C84.9409 74.2924 86.2019 72.8334 87.2039 71.3ZM120.817 46.0964C122.717 45.3417 124.617 44.587 126.707 44.1471L127.708 46.517C125.877 47.0313 123.977 47.786 122.077 48.5408L120.817 46.0964ZM80.5356 80.8324L82.9185 82.2985C81.9165 83.832 80.8454 85.6058 79.8434 87.1392L77.3913 85.9134C78.4624 84.1396 79.4644 82.6062 80.5356 80.8324ZM74.5061 91.069L76.9582 92.2948C76.1461 94.1431 75.1441 95.6766 74.332 97.5249L71.8799 96.2991C72.692 94.4508 73.694 92.9173 74.5061 91.069ZM132.786 42.5127C134.876 42.0728 136.897 41.8733 138.986 41.4334L139.4 43.8946C137.38 44.0941 135.29 44.534 133.528 44.808L132.786 42.5127ZM69.2537 101.529L71.7749 102.515C70.9628 104.363 70.2198 105.971 69.4077 107.819L66.8865 106.834C67.6986 104.985 68.4416 103.377 69.2537 101.529ZM145.238 41.1498C147.259 40.9503 149.47 41.0656 151.421 41.1065L151.507 43.7335C149.555 43.6927 147.345 43.5773 145.324 43.7768L145.238 41.1498ZM64.5193 112.138L67.0406 113.124L64.6734 118.428L62.1521 117.443L64.5193 112.138ZM59.785 122.748L62.3062 123.733C61.4941 125.581 60.7511 127.189 59.939 129.038L57.4869 127.812C58.2299 126.204 58.9729 124.596 59.785 122.748ZM157.794 41.378C160.004 41.4933 162.146 41.8491 164.028 42.1302L163.596 44.6083C161.454 44.2526 159.572 43.9714 157.361 43.856L157.794 41.378ZM54.7916 133.282L57.2437 134.508C56.4316 136.356 55.4296 137.89 54.6175 139.738L52.1654 138.512C52.9775 136.664 53.7896 134.816 54.7916 133.282ZM0.656028 183.031C2.48678 182.516 4.57657 182.076 6.40732 181.562L7.40848 183.932C5.5086 184.687 3.4188 185.127 1.32901 185.566L0.656028 183.031ZM49.0903 143.353L51.5424 144.579C50.4712 146.353 49.4692 147.886 48.3981 149.66L46.0151 148.194C47.2762 146.735 48.3473 144.961 49.0903 143.353ZM170.383 43.4377C172.456 44.0338 174.528 44.6298 176.6 45.2259L175.65 47.5549C173.577 46.9588 171.833 46.1969 169.692 45.8412L170.383 43.4377ZM11.8479 179.223C13.7478 178.469 15.3887 177.639 17.0987 176.57L18.687 178.848C16.977 179.918 15.008 180.913 13.1081 181.668L11.8479 179.223ZM42.94 153.034L45.3229 154.501L45.2538 154.741C44.2518 156.274 42.9908 157.733 41.7297 159.192L39.3468 157.726C40.6078 156.267 41.6098 154.734 42.8017 153.515L42.94 153.034ZM35.5636 162.103L37.6184 163.735C36.3574 165.194 34.8373 166.578 33.3172 167.963L31.3316 166.09C32.7825 164.946 34.3026 163.562 35.5636 162.103ZM22.2286 173.361C23.9386 172.292 25.3895 171.147 26.9096 169.763L28.5671 171.801C27.047 173.186 25.337 174.255 23.6271 175.325L22.2286 173.361Z" fill="#D71B5F"/>
<path d="M166.139 36.3224L163.98 38.1396L173.689 45.5514L162.068 54.2361L163.932 55.9592L178.02 45.1977L166.139 36.3224Z" fill="#D71B5F"/>
</g>
<defs>
<clipPath id="clip0_128_2">
<rect width="133.961" height="192.075" fill="white" transform="translate(53.1973 0.362732) rotate(16.0469)"/>
</clipPath>
</defs>
</svg>
